<?xml version="1.0" standalone="no"?>
<!DOCTYPE svg PUBLIC "-//W3C//DTD SVG 20010904//EN"
 "http://www.w3.org/TR/2001/REC-SVG-20010904/DTD/svg10.dtd">
<svg version="1.0" xmlns="http://www.w3.org/2000/svg"
 width="1271.000000pt" height="1280.000000pt" viewBox="0 0 1271.000000 1280.000000"
 preserveAspectRatio="xMidYMid meet">
<g transform="translate(0.000000,1280.000000) scale(0.100000,-0.100000)"
fill="#000000" stroke="none">
<path d="M7985 10500 c-1451 -98 -2717 -702 -3805 -1816 -273 -280 -459 -507
-655 -799 -416 -621 -651 -1246 -742 -1975 -14 -115 -17 -218 -17 -495 0 -379
9 -481 69 -752 111 -499 385 -1002 756 -1388 452 -468 958 -732 1589 -826 209
-32 638 -34 825 -5 549 85 1087 335 1586 738 60 48 114 88 120 88 21 0 0 -67
-82 -261 -306 -731 -589 -1283 -875 -1706 -56 -83 -100 -154 -97 -156 2 -3 40
-3 83 0 96 7 108 -5 66 -65 -14 -21 -26 -42 -26 -46 0 -8 43 -5 275 20 546 59
905 179 1054 351 48 55 168 293 234 463 106 270 280 814 421 1315 59 211 378
1391 771 2850 85 319 158 586 160 594 4 11 -3 12 -34 7 -49 -8 -55 8 -33 98 9
36 13 68 10 71 -2 3 -65 -10 -139 -29 -506 -129 -915 -192 -1649 -251 -747
-60 -1074 -105 -1385 -190 -245 -67 -364 -146 -485 -321 -85 -124 -241 -477
-267 -607 -7 -34 -9 -34 79 0 65 24 74 13 48 -62 -11 -32 -18 -60 -17 -62 2
-2 67 21 143 51 568 220 1338 353 2084 359 l215 2 3 -36 c8 -101 -130 -590
-243 -859 -281 -671 -788 -1199 -1360 -1419 -242 -93 -427 -125 -725 -125
-242 0 -349 12 -545 61 -410 102 -780 352 -1035 697 -358 487 -495 1144 -414
1996 92 971 498 1825 1213 2553 644 656 1356 1013 2196 1102 180 19 526 19
675 1 389 -49 683 -177 886 -387 89 -93 143 -168 199 -277 26 -52 42 -72 56
-72 13 0 26 -15 41 -45 12 -25 25 -45 29 -45 9 0 251 283 332 387 33 43 91
125 129 183 190 286 205 401 83 655 -66 139 -152 216 -319 288 -152 65 -352
109 -626 137 -141 14 -693 21 -855 10z"/>
</g>
</svg>
